<?xml version="1.0" encoding="UTF-8" standalone="no"?>
<!-- Created with Inkscape (http://www.inkscape.org/) -->

<svg
   xmlns:dc="http://purl.org/dc/elements/1.1/"
   xmlns:cc="http://creativecommons.org/ns#"
   xmlns:rdf="http://www.w3.org/1999/02/22-rdf-syntax-ns#"
   xmlns:svg="http://www.w3.org/2000/svg"
   xmlns="http://www.w3.org/2000/svg"
   xmlns:sodipodi="http://sodipodi.sourceforge.net/DTD/sodipodi-0.dtd"
   xmlns:inkscape="http://www.inkscape.org/namespaces/inkscape"
   width="32"
   height="32"
   id="svg2"
   version="1.1"
   inkscape:version="0.48.5 r10040"
   sodipodi:docname="toggleRegionLines.svg"
   inkscape:export-filename="/home/lucifer/mtsat-2/site/web/static/images/toggle-regionlines.png"
   inkscape:export-xdpi="90"
   inkscape:export-ydpi="90">
  <defs
     id="defs4" />
  <sodipodi:namedview
     id="base"
     pagecolor="#000000"
     bordercolor="#666666"
     borderopacity="1.0"
     inkscape:pageopacity="0"
     inkscape:pageshadow="2"
     inkscape:zoom="5.6568542"
     inkscape:cx="-6.3928383"
     inkscape:cy="3.8939434"
     inkscape:document-units="px"
     inkscape:current-layer="layer2"
     showgrid="false"
     inkscape:window-width="1366"
     inkscape:window-height="713"
     inkscape:window-x="0"
     inkscape:window-y="0"
     inkscape:window-maximized="1" />
  <metadata
     id="metadata7">
    <rdf:RDF>
      <cc:Work
         rdf:about="">
        <dc:format>image/svg+xml</dc:format>
        <dc:type
           rdf:resource="http://purl.org/dc/dcmitype/StillImage" />
        <dc:title></dc:title>
      </cc:Work>
    </rdf:RDF>
  </metadata>
  <g
     inkscape:label="Layer 1"
     inkscape:groupmode="layer"
     id="layer1"
     transform="translate(0,-1020.3622)"
     sodipodi:insensitive="true">
    <path
       sodipodi:type="arc"
       style="fill:#002397;fill-opacity:1;stroke:#ffffff;stroke-width:2.2327497;stroke-opacity:1"
       id="path2985"
       sodipodi:cx="17.361998"
       sodipodi:cy="16.910847"
       sodipodi:rx="17.361998"
       sodipodi:ry="17.361998"
       d="m 34.723995,16.910847 a 17.361998,17.361998 0 1 1 -34.723995,0 17.361998,17.361998 0 1 1 34.723995,0 z"
       transform="matrix(0.86587713,0,0,0.86587712,0.96664344,1021.7195)" />
  </g>
  <g
     inkscape:groupmode="layer"
     id="layer2"
     inkscape:label="层">
    <path
       style="fill:#024766;fill-opacity:1;stroke:#ffffff;stroke-width:1px;stroke-linecap:butt;stroke-linejoin:miter;stroke-opacity:1"
       d="m 15.202795,6.5441558 c 0.01846,0.2376882 0.295943,0.3882741 0.353554,0.6187184 0.02289,0.091561 0,0.2522018 0,0.3535534 0,0.029463 0,0.058926 0,0.088388 0,0.029463 0.01318,0.062036 0,0.088388 -0.04013,0.080257 -0.351556,0.2643659 -0.353554,0.2651651 -0.05471,0.021884 -0.11961,-0.014292 -0.176776,0 -0.06391,0.015978 -0.115608,0.063921 -0.176777,0.088388 -0.173011,0.069205 -0.363663,0.093443 -0.53033,0.1767767 -0.51288,0.25644 0.0011,0.121114 -0.618718,0.3535534 -0.113744,0.042654 -0.23831,0.049974 -0.353554,0.088388 -0.0625,0.020833 -0.112863,0.07241 -0.176777,0.088388 -0.144549,0.036137 -0.187361,-0.06722 -0.265165,0.088388 -0.05182,0.1036432 0.05245,0.1049069 0.08839,0.1767767 0.01318,0.026352 0,0.058926 0,0.088388 0,0.058926 0,0.1178511 0,0.1767767 0,0.176777 0,0.353554 0,0.53033 0,0.176777 0,0.3535538 0,0.5303308 0,0.03981 0.01345,0.238265 0,0.265165 -0.09772,0.195431 -0.05486,0.02743 -0.176777,0.08839 -0.404519,0.202259 0.375069,-0.03663 -0.265165,0.176777 -0.132583,0.04419 -0.08839,-0.08839 -0.265165,0 -0.02635,0.01318 0.02083,0.06755 0,0.08839 -0.04167,0.04167 -0.13511,-0.04167 -0.176777,0 -0.02083,0.02083 0.02083,0.06755 0,0.08839 -0.04167,0.04167 -0.13511,-0.04167 -0.176776,0 -0.02083,0.02083 0.01318,0.06204 0,0.08839 -0.01863,0.03727 -0.06976,0.05112 -0.08839,0.08839 -0.02607,0.05215 0.02027,0.204369 0,0.265165 -0.24342,0.730262 0.02671,-0.337016 -0.08839,0.353553 -0.01997,0.119826 -0.04997,0.23831 -0.08839,0.353554 -0.02083,0.0625 -0.05893,0.117851 -0.08839,0.176777 -0.08839,0.176776 -0.176777,0.353553 -0.265165,0.53033 -0.05608,0.112154 -0.147315,0.383016 -0.265165,0.441941 -0.02635,0.01318 -0.06044,-0.0093 -0.08839,0 -0.0625,0.02083 -0.112176,0.07547 -0.176777,0.08839 -0.08667,0.01733 -0.176777,0 -0.265165,0 -0.05893,0 -0.119611,0.01429 -0.176776,0 -0.06391,-0.01598 -0.115608,-0.06392 -0.176777,-0.08839 -0.08651,-0.0346 -0.1767767,-0.05893 -0.265165,-0.08839 -0.088388,-0.02946 -0.1738049,-0.07012 -0.2651651,-0.08839 -0.057781,-0.01156 -0.1196105,0.01429 -0.1767767,0 -0.090388,-0.0226 -0.1992842,-0.154269 -0.265165,-0.08839 -0.020833,0.02083 -0.020833,0.06756 0,0.08839 0.020833,0.02083 0.075212,-0.02635 0.088388,0 0.026352,0.0527 0,0.117851 0,0.176776 0,0.02946 0,0.05893 0,0.08839 0,0.02946 -0.013176,0.06204 0,0.08839 0.018634,0.03727 0.069754,0.05112 0.088388,0.08839 0.013147,0.02629 0,0.493149 0,0.530331 0,0.235702 0,0.471404 0,0.707106 0,0.05893 0,0.117851 0,0.176777 0,0.05893 0.014291,0.119611 0,0.176777 -0.015979,0.06391 -0.075468,0.112175 -0.088388,0.176776 -0.028891,0.144454 0,0.294628 0,0.441942 0,0.05893 0,0.117851 0,0.176777 0,0.02946 -0.00932,0.06044 0,0.08839 0.020833,0.0625 0.067555,0.114277 0.088388,0.176777 0.00932,0.02795 -0.013176,0.06204 0,0.08839 0.018634,0.03727 0.058925,0.05893 0.088388,0.08839 0.029463,0.02946 0.051121,0.06975 0.088388,0.08839 0.052705,0.02635 0.13511,-0.04167 0.1767767,0 0.020833,0.02083 -0.020833,0.06755 0,0.08839 0.1828786,0.182879 -0.00715,-0.279463 0.1767767,0.08839 0.013176,0.02635 0,0.05893 0,0.08839 0,0.02946 0,0.05893 0,0.08839 0,0.021 0.00991,0.333743 0,0.353554 -0.018634,0.03727 -0.069755,0.05112 -0.088388,0.08839 -0.013176,0.02635 0.013176,0.06204 0,0.08839 -0.03798,0.07596 -0.3692011,0.24698 -0.4419417,0.265165 -0.057166,0.01429 -0.1189954,-0.01156 -0.1767767,0 -0.09136,0.01827 -0.1786594,0.05379 -0.2651651,0.08839 -0.061169,0.02447 -0.1121752,0.07547 -0.1767767,0.08839 -0.5026642,0 -0.058191,-0.03953 -0.4419417,0.08839 -0.1632722,0.05443 -0.041905,-0.134872 -0.265165,0.08839 -0.012465,0.01246 -0.00907,0.247034 0,0.265165 0.018634,0.03727 0.069754,0.05112 0.088388,0.08839 0.026352,0.0527 -0.041667,0.13511 0,0.176777 0.020833,0.02083 0.062036,-0.01318 0.088388,0 0.037268,0.01863 0.05112,0.06975 0.088388,0.08839 0.026352,0.01318 0.067555,-0.02083 0.088388,0 0.020833,0.02083 -0.013176,0.06204 0,0.08839 0.018634,0.03727 0.069754,0.05112 0.088388,0.08839 0.013176,0.02635 -0.013176,0.06204 0,0.08839 0.035835,0.07167 0.2488251,0.199806 0.265165,0.265165 0.021437,0.08575 -0.021437,0.179416 0,0.265165 0.010106,0.04042 0.075212,0.04886 0.088388,0.08839 0.018634,0.0559 -0.014292,0.11961 0,0.176776 0.015978,0.06391 0.07241,0.112863 0.088388,0.176777 0.014292,0.05717 0,0.117851 0,0.176777 0,0.05892 0,0.117851 0,0.176777 0,0.235702 0,0.471404 0,0.707106 0,0.03981 -0.01345,0.238266 0,0.265165 0.039171,0.07834 0.2115243,0.184704 0.2651651,0.265165 0.036544,0.05482 0.041804,0.130192 0.088388,0.176777 0.041667,0.04167 0.1240721,-0.02635 0.1767767,0 0.2296797,0.11484 -0.09097,0.146454 0.2651651,0.265165 0.047836,0.01595 0.3234414,0 0.3535534,0 0.117851,0 0.237306,0.01938 0.353553,0 0.166523,-0.02775 0.237442,-0.165641 0.353553,-0.265165 0.143237,-0.122774 0.291019,-0.240361 0.441942,-0.353553 0.08498,-0.06374 0.190049,-0.101661 0.265165,-0.176777 0.133398,-0.133398 0.220155,-0.308543 0.353553,-0.441942 0.04659,-0.04658 0.130192,-0.0418 0.176777,-0.08839 0.02359,-0.02359 0.117566,-0.338965 0.265165,-0.265165 0.160948,0.08047 0.05181,0.06705 0.08839,0.176777 0.02083,0.0625 0.05893,0.117851 0.08839,0.176776 0.02946,0.05893 0.04886,0.124072 0.08839,0.176777 0.05,0.06667 0.126777,0.11011 0.176777,0.176777 0.08884,0.118449 0.125846,0.314615 0.176776,0.441941 0.02447,0.06117 0.06756,0.114277 0.08839,0.176777 0.0093,0.02795 -0.01318,0.06204 0,0.08839 0.01863,0.03727 0.07521,0.04886 0.08839,0.08839 0.01863,0.0559 -0.01863,0.120875 0,0.176776 0.01318,0.03953 0.06976,0.05112 0.08839,0.08839 0.02635,0.0527 -0.02635,0.124072 0,0.176777 0.01863,0.03727 0.06976,0.05112 0.08839,0.08839 0.03053,0.06105 -0.03103,0.410916 0,0.441942 0.02737,0.02737 0.414572,-0.02737 0.441942,0 0.02083,0.02083 -0.01318,0.06204 0,0.08839 0.03727,0.07454 0.130551,0.107439 0.176776,0.176777 0.108786,0.163178 0.15638,0.367151 0.265165,0.53033 0.02311,0.03467 0.06528,0.05372 0.08839,0.08839 0.03654,0.05482 0.0418,0.130192 0.08839,0.176777 0.02083,0.02083 0.07521,-0.02635 0.08839,0 0.01878,0.03757 0,0.367872 0,0.441942 0,0.147313 0,0.294627 0,0.441941 0,0.05893 0.01429,0.119611 0,0.176777 -0.0226,0.09039 -0.05379,0.178659 -0.08839,0.265165 -0.02447,0.06117 -0.07241,0.112863 -0.08839,0.176777 -0.01973,0.07891 0,0.33963 0,0.441941 0,0.02946 0,0.05893 0,0.08839 0,0.02946 -0.02083,0.06755 0,0.08839 0.02083,0.02083 0.05893,0 0.08839,0 0.02946,0 0.06044,0.0093 0.08839,0 0.0625,-0.02083 0.114277,-0.06755 0.176777,-0.08839 0.02795,-0.0093 0.05893,0 0.08839,0 0.284518,0 -0.150888,0.02083 0.176777,-0.08839 0.0559,-0.01863 0.119611,0.01429 0.176777,0 0.127827,-0.03196 0.231216,-0.127841 0.353553,-0.176776 0.889741,-0.355897 -0.187666,0.06901 0.441942,-0.08839 0.06391,-0.01598 0.112863,-0.07241 0.176777,-0.08839 0.05717,-0.01429 0.11961,0.01429 0.176776,0 0.159978,0.05327 0.164387,-0.143184 0.265165,-0.176777 0.0559,-0.01863 0.120875,0.01863 0.176777,0 0.03953,-0.01318 0.05893,-0.05892 0.08839,-0.08839 0.02946,-0.02946 0.06976,-0.05112 0.08839,-0.08839 0.01318,-0.02635 -0.01318,-0.06204 0,-0.08839 0.01863,-0.03727 0.07521,-0.04886 0.08839,-0.08839 0.0022,-0.0066 0.0097,-0.510924 0,-0.53033 -0.01863,-0.03727 -0.06975,-0.05112 -0.08839,-0.08839 -0.01318,-0.02635 0.01318,-0.06204 0,-0.08839 -0.01863,-0.03727 -0.05112,-0.06975 -0.08839,-0.08839 -0.02324,-0.01162 -0.307333,0 -0.353553,0 -0.02946,0 -0.06756,0.02083 -0.08839,0 -0.02083,-0.02083 0.02083,-0.06756 0,-0.08839 -0.02083,-0.02083 -0.07205,0.02452 -0.08839,0 -0.111706,-0.167558 -0.08839,-0.346063 -0.08839,-0.53033 0,-0.08839 -0.02795,-0.181312 0,-0.265165 0.02635,-0.07906 0.130552,-0.107439 0.176777,-0.176776 0.03654,-0.05482 0.03357,-0.140233 0.08839,-0.176777 0.04903,-0.03269 0.120875,0.01863 0.176777,0 0.07906,-0.02635 0.102241,-0.139509 0.176776,-0.176777 0.02635,-0.01318 0.06204,0.01318 0.08839,0 0.03727,-0.01863 0.04797,-0.07828 0.08839,-0.08839 0.08575,-0.02144 0.176777,0 0.265165,0 0.176777,0 0.353553,0 0.53033,0 0.05893,0 0.117851,0 0.176777,0 0.02946,0 0.06204,0.01318 0.08839,0 0.03727,-0.01863 0.05112,-0.06976 0.08839,-0.08839 0.02635,-0.01318 0.06756,0.02083 0.08839,0 0.02083,-0.02083 -0.01318,-0.06204 0,-0.08839 0.01863,-0.03727 0.06975,-0.05112 0.08839,-0.08839 0.02635,-0.0527 -0.01863,-0.120875 0,-0.176777 0.02083,-0.0625 0.07241,-0.112863 0.08839,-0.176777 0.03837,-0.153463 -0.03837,-0.376866 0,-0.53033 0.01598,-0.06391 0.06756,-0.114276 0.08839,-0.176776 0.0093,-0.02795 -0.01318,-0.06204 0,-0.08839 0.01863,-0.03727 0.05893,-0.05893 0.08839,-0.08839 0.02946,-0.02946 0.05893,-0.05893 0.08839,-0.08839 0.02946,-0.02946 0.04886,-0.07521 0.08839,-0.08839 0.04873,-0.01624 0.45532,0 0.53033,0 0.09192,0 0.460802,-0.01738 0.53033,0 0.06391,0.01598 0.112863,0.07241 0.176777,0.08839 0.09156,0.02289 0.252202,0 0.353553,0 0.08029,0 0.561339,0.01913 0.618719,0 0.03953,-0.01318 0.05112,-0.06976 0.08839,-0.08839 0.02635,-0.01318 0.05893,0 0.08839,0 0.05893,-0.02946 0.121961,-0.05184 0.176777,-0.08839 0.219861,-0.146574 0.01016,-0.02031 0.08839,-0.176777 0.03727,-0.07454 0.130552,-0.107439 0.176777,-0.176776 0.03654,-0.05482 0.05184,-0.121961 0.08839,-0.176777 0.02311,-0.03467 0.06976,-0.05112 0.08839,-0.08839 0.269501,-0.06257 0.03406,-0.2449 0.08839,-0.353554 0.01863,-0.03727 0.06975,-0.05112 0.08839,-0.08839 0.02635,-0.0527 -0.01863,-0.120875 0,-0.176777 0.02083,-0.0625 0.07241,-0.112863 0.08839,-0.176777 0.01495,-0.05982 0,-0.56184 0,-0.618718 0,-0.235702 0,-0.471405 0,-0.707107 0,-0.05892 0.01429,-0.11961 0,-0.176777 -0.01598,-0.06391 -0.06755,-0.114276 -0.08839,-0.176776 -0.01147,-0.03439 0.01372,-0.251449 0,-0.265165 -0.02083,-0.02083 -0.06204,0.01318 -0.08839,0 -0.03727,-0.01863 -0.05112,-0.06975 -0.08839,-0.08839 -0.02635,-0.01318 -0.05893,0 -0.08839,0 -0.05892,-0.02946 -0.12196,-0.05184 -0.176776,-0.08839 -0.03467,-0.02311 -0.04886,-0.07521 -0.08839,-0.08839 -0.0559,-0.01863 -0.11961,0.01429 -0.176776,0 -0.220337,-0.05508 -0.265837,-0.23615 -0.441942,-0.353554 -0.02451,-0.01634 -0.05893,0 -0.08839,0 -0.02946,0 -0.05893,0 -0.08839,0 -0.147314,0 -0.294628,0 -0.441941,0 -0.02946,0 -0.05893,0 -0.08839,0 -0.02946,0 -0.06204,0.01318 -0.08839,0 -0.03727,-0.01863 -0.05112,-0.06975 -0.08839,-0.08839 -0.02324,-0.01162 -0.307334,0 -0.353554,0 -0.176777,0 -0.353553,0 -0.53033,0 -0.05893,0 -0.11961,-0.01429 -0.176777,0 -0.06391,0.01598 -0.112863,0.07241 -0.176776,0.08839 -0.08013,0.02003 -0.339264,0 -0.441942,0 -0.115095,0 -0.441751,0.01772 -0.53033,0 -0.0646,-0.01292 -0.115608,-0.06392 -0.176777,-0.08839 -0.08651,-0.0346 -0.176777,-0.05893 -0.265165,-0.08839 -0.507001,-0.169001 -0.05369,0.02602 -0.441942,-0.265165 -0.27899,-0.209244 -0.110351,0.06642 -0.441941,-0.265165 -0.04659,-0.04659 -0.04886,-0.124073 -0.08839,-0.176777 -0.207487,-0.27665 -0.176776,-0.07475 -0.176776,-0.353554 0,-0.02946 -0.02083,-0.06755 0,-0.08839 0.02083,-0.02083 0.05893,0 0.08839,0 0.02946,0 0.05893,0 0.08839,0 0.353554,0 0.707107,0 1.06066,0 0.674283,0 -0.06972,0.03953 0.441942,-0.08839 0.153464,-0.03837 0.376866,0.03837 0.53033,0 0.06391,-0.01598 0.112863,-0.07241 0.176777,-0.08839 0.05717,-0.01429 0.117851,0 0.176777,0 0.05893,0 0.120875,-0.01863 0.176776,0 0.0625,0.02083 0.112863,0.07241 0.176777,0.08839 0.153464,0.03837 0.376866,-0.03837 0.53033,0 0.06391,0.01598 0.112863,0.07241 0.176777,0.08839 0.114332,0.02858 0.239221,-0.02858 0.353553,0 0.06391,0.01598 0.112175,0.07547 0.176777,0.08839 0.036,0.0072 0.497025,-0.01665 0.53033,0 0.03727,0.01863 0.05112,0.06976 0.08839,0.08839 0.02817,0.01408 0.362947,0 0.441942,0 0.021,0 0.333743,0.0099 0.353553,0 0.03657,-0.01829 0.240189,-0.227701 0.265166,-0.265165 0.03654,-0.05482 0.0418,-0.130192 0.08839,-0.176777 0.04659,-0.04659 0.130192,-0.0418 0.176777,-0.08839 0.04658,-0.04659 0.04886,-0.124072 0.08839,-0.176777 0.148492,-0.19799 0.381838,-0.33234 0.53033,-0.53033 0.03953,-0.0527 0.05184,-0.121961 0.08839,-0.176777 0.150353,-0.225529 0.08397,0.110482 0.176777,-0.353553 0.01156,-0.05778 -0.01429,-0.119611 0,-0.176777 0.01598,-0.06391 0.07241,-0.112863 0.08839,-0.176777 0.03837,-0.153463 -0.03837,-0.376866 0,-0.53033 0.01598,-0.06391 0.07547,-0.112175 0.08839,-0.176776 0.02889,-0.144454 -0.03573,-0.299027 0,-0.441942 0.01598,-0.06391 0.06756,-0.114277 0.08839,-0.176777 0.0065,-0.01941 0.0066,-0.340413 0,-0.353553 -0.01863,-0.03727 -0.06975,-0.05112 -0.08839,-0.08839 -0.01318,-0.02635 0,-0.05893 0,-0.08839 0,-0.05893 0.01429,-0.11961 0,-0.176777 -0.035,-0.140009 -0.141775,-0.213543 -0.176777,-0.353553 -0.01429,-0.05717 0.01429,-0.11961 0,-0.176777 -0.01598,-0.06391 -0.05893,-0.117851 -0.08839,-0.176776 -0.05893,-0.117851 -0.13511,-0.228554 -0.176777,-0.353554 -0.0093,-0.02795 0.01318,-0.06204 0,-0.08839 -0.01863,-0.03727 -0.06975,-0.05112 -0.08839,-0.08839 -0.02635,-0.0527 0.04167,-0.13511 0,-0.176777 -0.02083,-0.02083 -0.06755,0.02083 -0.08839,0 -0.182878,-0.1828788 0.279463,0.0071 -0.08839,-0.1767768 -0.02635,-0.01318 -0.06044,0.0093 -0.08839,0 -0.0625,-0.02083 -0.112863,-0.07241 -0.176777,-0.08839 -0.05717,-0.01429 -0.120875,0.01863 -0.176777,0 -0.769547,-0.256516 -0.14062,-0.06428 -0.441942,-0.265165 -0.05482,-0.03654 -0.130191,-0.0418 -0.176776,-0.08839 -0.02083,-0.02083 0.01318,-0.06204 0,-0.08839 -0.20226,-0.4045191 0.03663,0.375069 -0.176777,-0.2651654 -0.0093,-0.027951 0.01318,-0.062036 0,-0.088388 -0.01863,-0.037268 -0.06975,-0.05112 -0.08839,-0.088388 -0.0023,-0.00462 -0.0023,-0.260541 0,-0.2651651 0.05303,-0.106066 0.212132,-0.159099 0.265165,-0.265165 0.01318,-0.026352 0,-0.058926 0,-0.088388 0.05892,-0.058925 0.130551,-0.1074392 0.176776,-0.1767767 0.01634,-0.024515 -0.01318,-0.062036 0,-0.088388 0.09412,-0.1882353 0.08266,0.011459 0.176777,-0.1767767 0.01162,-0.023241 0,-0.3073333 0,-0.3535534 0,-0.029463 0,-0.058926 0,-0.088388 0,-0.029463 0.02083,-0.067555 0,-0.088388 -0.02083,-0.020833 -0.06204,0.013176 -0.08839,0 -0.404519,-0.2022594 0.375068,0.036634 -0.265165,-0.1767767 -0.0559,-0.018634 -0.124072,0.026352 -0.176777,0 -0.03727,-0.018634 -0.05112,-0.069754 -0.08839,-0.088388 -0.0527,-0.026352 -0.120875,0.018634 -0.176777,0 -0.0625,-0.020833 -0.114277,-0.067555 -0.176777,-0.088388 -0.09392,-0.031307 -0.259631,0.031307 -0.353553,0 -0.0625,-0.020833 -0.114277,-0.067555 -0.176777,-0.088388 -0.05716,-0.019054 -0.34543,0 -0.441941,0 -0.176777,0 -0.353554,0 -0.530331,0 -0.02946,0 -0.05893,0 -0.08839,0 -0.02946,0 -0.06204,0.013176 -0.08839,0 -0.03727,-0.018634 -0.05112,-0.069755 -0.08839,-0.088388 -0.03933,-0.019665 -0.313125,0.013476 -0.353553,0 -0.03953,-0.013176 -0.05112,-0.069754 -0.08839,-0.088388 -0.05215,-0.026076 -0.204369,0.020265 -0.265165,0 -0.0625,-0.020833 -0.114277,-0.067555 -0.176777,-0.088388 -0.0527,-0.017568 -0.444694,0 -0.53033,0 -0.02946,0 -0.06204,0.013176 -0.08839,0 -0.03727,-0.018634 -0.05112,-0.069754 -0.08839,-0.088388 -0.0269,-0.01345 -0.225359,0 -0.265165,0 -0.235702,0 -0.471404,0 -0.707107,0 -0.02946,0 -0.05892,0 -0.08839,0 -0.02946,0 -0.06756,0.020833 -0.08839,0 -0.02083,-0.020833 0.02083,-0.067555 0,-0.088388 -0.0036,-0.00356 -0.321094,0 -0.353554,0 -0.02144,0 -0.262322,0.00284 -0.265165,0 -0.02083,-0.020833 0.02946,-0.088388 0,-0.088388 -0.150231,0 -0.294628,0.058925 -0.441942,0.088388 z"
       id="path3810"
       inkscape:connector-curvature="0" />
  </g>
</svg>
